<svg width="30" height="30" fill="none" xmlns="http://www.w3.org/2000/svg"><path d="M23.71 18.584c-.615-.64-1.356-.982-2.14-.982-.78 0-1.527.336-2.166.975l-2.001 1.995c-.165-.089-.33-.171-.488-.253-.227-.114-.443-.222-.626-.336-1.875-1.19-3.578-2.742-5.211-4.749-.792-1-1.324-1.842-1.71-2.697.52-.475 1-.969 1.469-1.444.177-.177.355-.36.532-.538 1.33-1.33 1.33-3.052 0-4.381L9.64 4.445c-.196-.196-.399-.399-.589-.601a29.44 29.44 0 00-1.19-1.178c-.614-.608-1.349-.93-2.121-.93s-1.52.322-2.153.93l-.012.013L1.422 4.85A4.632 4.632 0 00.048 7.795c-.152 1.848.392 3.57.81 4.698 1.026 2.767 2.558 5.331 4.844 8.079 2.773 3.311 6.11 5.926 9.922 7.769 1.456.69 3.4 1.507 5.572 1.646.133.007.272.013.399.013 1.462 0 2.69-.526 3.653-1.57.006-.013.019-.02.025-.032.33-.399.71-.76 1.108-1.146.273-.26.551-.532.823-.817.627-.652.956-1.412.956-2.19 0-.786-.335-1.54-.975-2.172l-3.476-3.49zm2.266 6.667c-.006 0-.006.006 0 0-.247.266-.5.507-.772.772-.412.393-.83.805-1.222 1.267-.64.684-1.393 1.007-2.381 1.007-.095 0-.196 0-.291-.007-1.88-.12-3.628-.854-4.94-1.481-3.583-1.735-6.73-4.198-9.345-7.32-2.159-2.602-3.602-5.008-4.559-7.591-.588-1.577-.804-2.805-.709-3.964a2.91 2.91 0 01.874-1.88l2.16-2.16c.31-.291.639-.45.962-.45.399 0 .721.241.924.444l.02.019c.385.36.753.734 1.139 1.133.196.203.399.405.601.614l1.729 1.729c.671.671.671 1.292 0 1.963-.184.183-.361.367-.545.544a33.044 33.044 0 01-1.589 1.545c-.013.013-.025.02-.032.032-.544.544-.443 1.076-.329 1.437l.02.057c.449 1.09 1.082 2.115 2.044 3.337l.007.006c1.747 2.153 3.59 3.831 5.622 5.116.26.165.526.298.779.425.228.114.443.221.627.335.025.013.05.032.076.044.215.108.418.159.627.159.525 0 .854-.33.962-.437l2.166-2.166c.215-.215.557-.474.956-.474.392 0 .715.246.911.462l.013.012 3.489 3.49c.652.645.652 1.31.006 1.981zM16.213 7.136a8.03 8.03 0 014.368 2.267 8.071 8.071 0 012.267 4.369.85.85 0 00.842.709.856.856 0 00.848-1 9.766 9.766 0 00-2.74-5.287 9.766 9.766 0 00-5.288-2.742.86.86 0 00-.988.696.846.846 0 00.69.988zm13.752 6.098a16.067 16.067 0 00-4.514-8.706A16.067 16.067 0 0016.745.013a.852.852 0 00-.982.697.859.859 0 00.703.987c2.95.5 5.642 1.9 7.782 4.034a14.344 14.344 0 014.033 7.781c.07.418.43.71.842.71.05 0 .095-.007.146-.013a.839.839 0 00.696-.975z" fill="#CFA84C"/></svg>