<svg width="30" height="30" fill="none" xmlns="http://www.w3.org/2000/svg"><path d="M15 0C9.184 0 4.453 4.731 4.453 10.547c0 1.965.544 3.882 1.574 5.546L14.4 29.584c.16.259.443.416.746.416h.007a.879.879 0 00.747-.427l8.16-13.623a10.534 10.534 0 001.487-5.403C25.547 4.73 20.815 0 15 0zm7.55 15.048l-7.417 12.385-7.611-12.266a8.778 8.778 0 01-1.323-4.62c0-4.846 3.955-8.8 8.801-8.8s8.795 3.954 8.795 8.8a8.78 8.78 0 01-1.244 4.5z" fill="#CFA84C"/><path d="M15 5.273a5.28 5.28 0 00-5.273 5.274A5.267 5.267 0 0015 15.82c2.983 0 5.273-2.416 5.273-5.273A5.28 5.28 0 0015 5.273zm0 8.801a3.53 3.53 0 01-3.527-3.527A3.54 3.54 0 0115 7.02a3.535 3.535 0 013.521 3.527A3.523 3.523 0 0115 14.074z" fill="#CFA84C"/></svg>