<svg width="20" height="20" fill="none" xmlns="http://www.w3.org/2000/svg"><g clip-path="url(#clip0)" fill="#CFA84C"><path d="M15.806 12.39c-.41-.427-.903-.655-1.426-.655-.52 0-1.018.224-1.444.65l-1.334 1.33c-.11-.06-.22-.114-.325-.17a5.143 5.143 0 01-.418-.223c-1.25-.793-2.385-1.828-3.474-3.166-.527-.667-.882-1.228-1.14-1.798.347-.316.667-.646.98-.962.118-.118.236-.24.354-.36.887-.886.887-2.034 0-2.92L6.427 2.964c-.13-.131-.266-.266-.393-.401a19.93 19.93 0 00-.793-.786c-.41-.405-.9-.62-1.414-.62-.515 0-1.013.215-1.435.62l-.009.009L.948 3.234a3.088 3.088 0 00-.916 1.962C-.069 6.43.294 7.577.572 8.33c.684 1.844 1.706 3.554 3.23 5.386a19.864 19.864 0 006.614 5.18c.97.46 2.267 1.004 3.715 1.097.088.004.181.008.265.008.976 0 1.794-.35 2.436-1.047.004-.008.013-.012.017-.02.22-.267.473-.508.739-.765.181-.173.367-.354.549-.544.417-.435.637-.942.637-1.461 0-.523-.224-1.026-.65-1.448l-2.318-2.326zm1.512 4.444c-.005 0-.005.004 0 0-.165.177-.334.338-.515.515a11.1 11.1 0 00-.815.844c-.426.456-.929.671-1.587.671-.064 0-.131 0-.194-.004-1.254-.08-2.42-.57-3.293-.987a18.751 18.751 0 01-6.23-4.88c-1.44-1.735-2.402-3.339-3.04-5.061-.392-1.051-.536-1.87-.472-2.643.042-.494.232-.903.582-1.253l1.44-1.44c.206-.194.426-.3.641-.3.266 0 .481.161.617.296l.012.013c.258.24.503.49.76.755.13.135.266.27.401.41l1.152 1.152c.448.448.448.861 0 1.309-.122.122-.24.244-.363.363-.354.363-.692.7-1.06 1.03-.008.008-.016.012-.02.02-.363.364-.296.718-.22.959l.013.038c.3.726.722 1.41 1.363 2.225l.005.004c1.165 1.435 2.393 2.554 3.748 3.41.173.11.35.199.52.283.151.076.295.148.417.224.017.008.034.021.05.03a.916.916 0 00.419.105c.35 0 .57-.22.641-.291l1.444-1.444c.143-.143.371-.316.637-.316.262 0 .477.164.608.308l.009.008 2.325 2.326c.435.43.435.874.005 1.321zM10.809 4.758a5.351 5.351 0 012.912 1.51 5.38 5.38 0 011.511 2.913.566.566 0 00.562.473c.034 0 .063-.004.097-.008a.57.57 0 00.469-.659 6.511 6.511 0 00-1.828-3.525 6.51 6.51 0 00-3.525-1.827.573.573 0 00-.658.464.564.564 0 00.46.659zm9.168 4.064a10.711 10.711 0 00-3.01-5.804 10.71 10.71 0 00-5.804-3.01.568.568 0 10-.186 1.124 9.591 9.591 0 015.188 2.688 9.563 9.563 0 012.689 5.188.566.566 0 00.561.473c.034 0 .064-.004.098-.008a.56.56 0 00.464-.65z"/></g><defs><clipPath id="clip0"><path fill="#fff" d="M0 0h20v20H0z"/></clipPath></defs></svg>