<svg width="75" height="75" fill="none" xmlns="http://www.w3.org/2000/svg"><path d="M28.275 22.207zm13.019 2.41c.975 1.2 1.46 2.615 1.46 4.244 0 1.166-.335 2.288-1 3.372a8.23 8.23 0 01-1.445 1.773l-1.998 1.974c-1.916 1.882-3.153 3.548-3.719 5.008-.566 1.455-.849 3.375-.849 5.754h4.446c0-2.096.238-3.682.712-4.756.474-1.074 1.51-2.383 3.11-3.934 2.198-2.13 3.657-3.746 4.38-4.844.723-1.098 1.087-2.53 1.087-4.296 0-2.91-.985-5.304-2.959-7.18-1.974-1.874-4.599-2.808-7.878-2.808-3.546 0-6.334 1.094-8.366 3.283-2.032 2.188-3.048 5.08-3.048 8.676h4.445c.082-2.165.427-3.822 1.023-4.97 1.064-2.063 2.987-3.096 5.768-3.096 2.247 0 3.86.6 4.831 1.8z" fill="#CFA84C" fill-opacity=".75"/><path d="M75 37.5C75 16.79 58.21 0 37.5 0S0 16.79 0 37.5 16.79 75 37.5 75 75 58.21 75 37.5zm-71.59 0c0-18.828 15.262-34.09 34.09-34.09 18.828 0 34.09 15.262 34.09 34.09 0 18.828-15.262 34.09-34.09 34.09-18.828 0-34.09-15.262-34.09-34.09z" fill="#CFA84C" fill-opacity=".75"/><path d="M38.611 50.884h-4.97v5.192h4.97v-5.192z" fill="#CFA84C" fill-opacity=".75"/></svg>