<svg width="30" height="30" fill="none" xmlns="http://www.w3.org/2000/svg"><path d="M23.71 18.584c-.615-.64-1.355-.982-2.14-.982-.78 0-1.527.336-2.166.976l-2 1.994c-.166-.089-.33-.17-.488-.253a7.926 7.926 0 01-.627-.336c-1.875-1.19-3.578-2.741-5.211-4.749-.792-1-1.324-1.842-1.71-2.697.52-.475 1-.969 1.47-1.444l.531-.538c1.33-1.33 1.33-3.052 0-4.381L9.64 4.445a26.366 26.366 0 01-.588-.601 29.89 29.89 0 00-1.19-1.178c-.615-.608-1.35-.93-2.122-.93-.772 0-1.52.322-2.153.93l-.012.013L1.422 4.85A4.632 4.632 0 00.048 7.795c-.152 1.849.392 3.57.81 4.698 1.026 2.767 2.558 5.331 4.844 8.08 2.773 3.31 6.11 5.925 9.922 7.768 1.456.69 3.4 1.507 5.572 1.646.133.007.272.013.399.013 1.462 0 2.69-.526 3.653-1.57.006-.013.02-.02.025-.032.33-.399.71-.76 1.108-1.146.273-.26.551-.532.824-.817.626-.652.956-1.412.956-2.19 0-.786-.336-1.54-.975-2.172l-3.477-3.49zm2.266 6.667c-.006 0-.006.006 0 0-.247.266-.5.507-.772.773-.412.392-.83.804-1.222 1.266-.64.684-1.393 1.007-2.381 1.007-.095 0-.196 0-.291-.007-1.88-.12-3.628-.854-4.939-1.481-3.584-1.735-6.73-4.198-9.346-7.32-2.159-2.602-3.602-5.008-4.558-7.591-.59-1.577-.805-2.805-.71-3.964.064-.74.349-1.355.874-1.88l2.16-2.16c.31-.29.639-.45.962-.45.399 0 .722.241.924.444l.02.019c.385.36.753.734 1.139 1.133.196.203.399.406.601.615l1.729 1.728c.671.671.671 1.292 0 1.963-.184.184-.361.367-.545.544a33.057 33.057 0 01-1.589 1.545c-.012.013-.025.02-.031.032-.545.545-.444 1.076-.33 1.437l.02.057c.449 1.09 1.082 2.115 2.044 3.337l.007.007c1.747 2.152 3.59 3.83 5.622 5.116.26.164.526.297.78.424.227.114.442.221.626.335.025.013.05.032.076.045.215.107.418.158.627.158.525 0 .855-.33.962-.437l2.166-2.165c.215-.216.557-.475.956-.475.392 0 .715.247.911.462l.013.013 3.489 3.488c.652.646.652 1.311.006 1.982zM16.213 7.136a8.03 8.03 0 014.368 2.267 8.07 8.07 0 012.267 4.369.85.85 0 00.842.709.856.856 0 00.848-1 9.766 9.766 0 00-2.74-5.287 9.766 9.766 0 00-5.288-2.742.86.86 0 00-.988.696.846.846 0 00.69.988zm13.752 6.098a16.067 16.067 0 00-4.514-8.706A16.067 16.067 0 0016.745.013a.852.852 0 00-.982.697.859.859 0 00.703.987c2.95.5 5.642 1.9 7.782 4.034a14.344 14.344 0 014.033 7.781c.07.418.43.71.842.71.05 0 .095-.007.146-.013a.839.839 0 00.696-.975z" fill="#CFA84C"/></svg>