<svg width="30" height="30" viewBox="0 0 30 30" fill="none" xmlns="http://www.w3.org/2000/svg">
<path d="M23.7093 18.5838C23.0952 17.9443 22.3544 17.6024 21.5692 17.6024C20.7904 17.6024 20.0433 17.9379 19.4038 18.5774L17.403 20.5719C17.2383 20.4833 17.0737 20.401 16.9154 20.3187C16.6875 20.2047 16.4722 20.0971 16.2886 19.9831C14.4144 18.7927 12.7112 17.2415 11.0776 15.2343C10.2861 14.2339 9.75428 13.3918 9.36804 12.537C9.88724 12.0621 10.3685 11.5682 10.837 11.0934C11.0143 10.9161 11.1916 10.7325 11.3689 10.5552C12.6985 9.22551 12.6985 7.50329 11.3689 6.17363L9.6403 4.44508C9.44402 4.24879 9.24141 4.04618 9.05146 3.84357C8.67155 3.451 8.27266 3.04577 7.8611 2.66587C7.24692 2.05802 6.51245 1.73511 5.73998 1.73511C4.96751 1.73511 4.22037 2.05802 3.5872 2.66587C3.58087 2.6722 3.58087 2.6722 3.57454 2.67853L1.42176 4.85031C0.611304 5.66076 0.14909 6.64851 0.0477825 7.79455C-0.104178 9.64341 0.440348 11.3656 0.85824 12.4927C1.88397 15.2596 3.41625 17.824 5.70199 20.5719C8.47527 23.8834 11.8121 26.4984 15.6238 28.3409C17.08 29.0311 19.0239 29.8479 21.1957 29.9872C21.3286 29.9935 21.4679 29.9998 21.5946 29.9998C23.0572 29.9998 24.2855 29.4743 25.2479 28.4296C25.2543 28.4169 25.2669 28.4106 25.2733 28.3979C25.6025 27.999 25.9824 27.6381 26.3813 27.2519C26.6536 26.9923 26.9322 26.72 27.2044 26.4351C27.8313 25.7829 28.1605 25.0231 28.1605 24.2443C28.1605 23.4592 27.8249 22.7057 27.1854 22.0725L23.7093 18.5838ZM25.9761 25.2511C25.9698 25.2511 25.9698 25.2574 25.9761 25.2511C25.7292 25.517 25.4759 25.7576 25.2036 26.0235C24.7921 26.4161 24.3742 26.8277 23.9816 27.2899C23.3421 27.9737 22.5886 28.2966 21.6009 28.2966C21.5059 28.2966 21.4046 28.2966 21.3096 28.2903C19.4291 28.17 17.6816 27.4355 16.3709 26.8087C12.7872 25.0738 9.6403 22.6107 7.02531 19.4892C4.8662 16.8869 3.42258 14.4808 2.46649 11.8975C1.87764 10.3209 1.66237 9.09255 1.75734 7.93385C1.82066 7.19304 2.10558 6.57886 2.63112 6.05333L4.79022 3.89422C5.10048 3.60296 5.42973 3.44467 5.75264 3.44467C6.15154 3.44467 6.47446 3.68527 6.67707 3.88789C6.6834 3.89422 6.68973 3.90055 6.69606 3.90688C7.0823 4.26779 7.44954 4.64136 7.83577 5.04026C8.03205 5.24287 8.23467 5.44549 8.43728 5.65443L10.1658 7.38299C10.837 8.05415 10.837 8.67466 10.1658 9.34582C9.98222 9.52944 9.80493 9.71306 9.62131 9.89034C9.08945 10.4349 8.58291 10.9414 8.03205 11.4353C8.01939 11.4479 8.00673 11.4543 8.0004 11.4669C7.45587 12.0115 7.55718 12.5433 7.67115 12.9042C7.67748 12.9232 7.68381 12.9422 7.69014 12.9612C8.13969 14.0503 8.77286 15.076 9.73528 16.298L9.74161 16.3044C11.4892 18.4571 13.3317 20.135 15.3642 21.4204C15.6238 21.585 15.8897 21.718 16.143 21.8446C16.3709 21.9586 16.5862 22.0662 16.7698 22.1802C16.7951 22.1928 16.8204 22.2118 16.8458 22.2245C17.0611 22.3321 17.2637 22.3828 17.4726 22.3828C17.9981 22.3828 18.3274 22.0535 18.435 21.9459L20.6005 19.7805C20.8158 19.5652 21.1577 19.3056 21.5566 19.3056C21.9491 19.3056 22.272 19.5525 22.4683 19.7678C22.4747 19.7741 22.4747 19.7741 22.481 19.7805L25.9698 23.2692C26.6219 23.9151 26.6219 24.5799 25.9761 25.2511Z" fill="#CFA84C"/>
<path d="M16.2126 7.13611C17.8715 7.4147 19.3785 8.19983 20.5815 9.40286C21.7845 10.6059 22.5633 12.1128 22.8482 13.7717C22.9179 14.1896 23.2788 14.4809 23.6904 14.4809C23.741 14.4809 23.7853 14.4746 23.836 14.4682C24.3045 14.3922 24.6148 13.949 24.5388 13.4805C24.1969 11.4733 23.2471 9.64346 21.7972 8.1935C20.3472 6.74354 18.5174 5.79379 16.5102 5.45187C16.0417 5.37589 15.6048 5.68615 15.5225 6.14836C15.4402 6.61058 15.7441 7.06013 16.2126 7.13611Z" fill="#CFA84C"/>
<path d="M29.9652 13.2336C29.4016 9.92848 27.844 6.92092 25.4507 4.52754C23.0573 2.13415 20.0497 0.576553 16.7446 0.0130316C16.2823 -0.0692806 15.8455 0.247305 15.7631 0.709519C15.6872 1.17807 15.9974 1.61495 16.466 1.69727C19.4165 2.19747 22.1075 3.59678 24.2476 5.73056C26.3877 7.87068 27.7807 10.5617 28.2809 13.5122C28.3506 13.9301 28.7115 14.2214 29.123 14.2214C29.1737 14.2214 29.218 14.215 29.2687 14.2087C29.7309 14.1391 30.0475 13.6958 29.9652 13.2336Z" fill="#CFA84C"/>
</svg>
