<svg width="75" height="75" viewBox="0 0 75 75" fill="none" xmlns="http://www.w3.org/2000/svg">
<path d="M28.275 22.207C27.9818 22.5241 27.791 22.7286 27.6477 22.882C27.9136 22.5956 28.275 22.207 28.275 22.207Z" fill="#CFA84C" fill-opacity="0.75"/>
<path d="M41.2943 24.6171C42.2693 25.8171 42.7534 27.2319 42.7534 28.8615C42.7534 30.0274 42.4192 31.149 41.7545 32.233C41.3897 32.8466 40.9092 33.4399 40.309 34.0057L38.3114 35.9796C36.3954 37.8615 35.1579 39.5284 34.592 40.9876C34.0261 42.4432 33.7431 44.3626 33.7431 46.7421H38.1886C38.1886 44.6455 38.4272 43.0602 38.9011 41.9863C39.3748 40.9124 40.4112 39.6035 42.0101 38.0523C44.2089 35.9215 45.6681 34.3057 46.3908 33.2079C47.1135 32.1101 47.4783 30.6784 47.4783 28.9124C47.4783 26.0012 46.4931 23.6079 44.5192 21.7329C42.5454 19.8579 39.9204 18.9238 36.6408 18.9238C33.0953 18.9238 30.3067 20.0181 28.2748 22.2068C26.243 24.3955 25.2271 27.2863 25.2271 30.8829H29.6725C29.7543 28.7181 30.0987 27.0613 30.6953 25.9124C31.7589 23.8499 33.6817 22.817 36.4634 22.817C38.7101 22.8171 40.3226 23.4171 41.2943 24.6171Z" fill="#CFA84C" fill-opacity="0.75"/>
<path d="M75 37.5C75 16.7897 58.2102 0 37.5 0C16.7897 0 0 16.7897 0 37.5C0 58.2102 16.7897 75 37.5 75C58.2102 75 75 58.2102 75 37.5ZM3.40907 37.5C3.40907 18.6716 18.6716 3.40907 37.5 3.40907C56.3284 3.40907 71.5909 18.6716 71.5909 37.5C71.5909 56.3284 56.3284 71.5909 37.5 71.5909C18.6716 71.5909 3.40907 56.3284 3.40907 37.5Z" fill="#CFA84C" fill-opacity="0.75"/>
<path d="M38.6113 50.8843H33.6409V56.0763H38.6113V50.8843Z" fill="#CFA84C" fill-opacity="0.75"/>
</svg>
